<?xml version="1.0" standalone="no"?>
<!DOCTYPE svg PUBLIC "-//W3C//DTD SVG 20010904//EN"
 "http://www.w3.org/TR/2001/REC-SVG-20010904/DTD/svg10.dtd">
<svg version="1.0" xmlns="http://www.w3.org/2000/svg"
 width="604.000000pt" height="604.000000pt" viewBox="0 0 604.000000 604.000000"
 preserveAspectRatio="xMidYMid meet">
<metadata>
Created by potrace 1.14, written by Peter Selinger 2001-2017
</metadata>
<g transform="translate(0.000000,604.000000) scale(0.100000,-0.100000)"
fill="#000000" stroke="none">
<path d="M3385 5533 c17 -3 36 -9 43 -15 9 -8 12 -6 12 6 0 12 -9 16 -42 15
-35 -2 -37 -3 -13 -6z"/>
<path d="M3433 5455 c-18 -6 -35 -14 -39 -17 -9 -9 -11 -1587 -1 -1581 4 2 7
-212 7 -477 0 -265 -3 -479 -7 -477 -6 4 -8 -1730 -3 -1960 0 -8 15 -13 40
-13 22 0 41 1 42 3 2 1 5 947 8 2102 l5 2100 23 1 c23 1 45 14 24 14 -7 0 -11
12 -11 28 1 16 3 20 6 10 2 -9 13 -20 24 -23 11 -4 17 -11 14 -16 -4 -5 0 -9
9 -9 8 0 17 6 19 13 4 9 6 9 6 -1 1 -10 5 -10 17 2 8 9 27 15 42 15 24 -2 24
-2 5 -6 -13 -2 -23 -9 -23 -14 0 -6 9 -8 19 -4 11 3 22 1 26 -5 3 -5 22 -10
41 -10 32 0 34 -2 34 -35 0 -34 1 -35 40 -35 23 0 40 5 40 11 0 8 4 8 13 2 15
-12 108 -13 101 -1 -3 4 -1 8 4 8 18 0 30 -25 34 -65 l3 -40 78 -3 77 -3 0
-45 c0 -50 0 -50 83 -59 31 -4 57 -11 57 -17 0 -6 -10 -8 -25 -4 -18 5 -25 2
-25 -9 0 -10 10 -14 38 -12 37 2 37 2 43 -43 6 -45 6 -45 7 -7 2 47 22 49 22
2 0 -19 5 -35 10 -35 6 0 10 16 10 35 0 19 5 35 10 35 6 0 10 -15 10 -33 0
-27 4 -33 22 -34 12 -1 28 3 35 8 13 11 20 -6 25 -66 3 -28 7 -30 48 -35 44
-5 45 -6 44 -39 -2 -32 -1 -33 32 -28 l33 6 3 -47 3 -47 43 -3 c42 -3 46 -7
42 -51 -1 -13 3 -21 8 -17 5 3 12 -4 16 -17 9 -33 8 -37 -9 -37 -8 0 -15 -4
-15 -10 0 -15 21 -12 41 6 14 13 16 21 8 35 -6 11 -6 19 0 19 24 0 28 -67 4
-73 -14 -4 -12 -5 5 -6 22 -1 27 -12 23 -61 -1 -22 0 -23 9 -7 6 9 8 26 5 37
-5 16 -2 20 16 20 17 0 19 -3 10 -14 -8 -10 -9 -16 -1 -21 15 -10 12 -23 -7
-28 -11 -3 -7 -5 10 -6 23 -1 27 -5 27 -30 0 -41 9 -61 29 -61 14 0 14 2 1 11
-13 9 -13 10 0 6 8 -2 14 -10 12 -17 -2 -7 6 -22 16 -34 32 -35 43 -63 34 -88
-14 -40 5 -78 24 -47 4 8 9 7 15 -2 16 -25 10 -47 -13 -52 l-23 -4 23 -2 c19
-1 22 -7 22 -42 0 -33 4 -42 20 -46 17 -5 20 -11 15 -42 l-5 -36 10 32 c6 18
15 35 20 38 13 8 13 3 0 -30 -9 -22 -8 -26 4 -22 8 3 17 1 20 -6 3 -9 8 -8 15
3 6 8 11 11 12 5 0 -5 2 -41 4 -80 1 -38 3 -80 4 -93 1 -14 6 -22 15 -20 16 3
19 -7 10 -36 -4 -12 0 -22 10 -28 17 -10 22 -48 6 -48 -5 0 -10 10 -10 23 0
18 -2 19 -11 7 -9 -13 -10 -13 -8 0 1 8 1 29 0 45 -2 29 -2 30 -12 6 -7 -18
-4 -34 12 -67 11 -24 25 -44 30 -44 5 0 9 -17 9 -37 1 -42 24 -84 34 -61 3 7
3 -2 0 -21 -3 -18 -2 -36 4 -40 5 -3 12 -35 15 -71 4 -42 3 -54 -2 -35 -6 21
-8 6 -8 -55 2 -181 -14 -391 -33 -453 -11 -34 -20 -70 -20 -80 0 -10 -3 -16
-7 -14 -5 3 -9 -8 -10 -25 -1 -16 -9 -43 -18 -60 -8 -17 -12 -41 -9 -53 3 -13
1 -26 -5 -29 -6 -4 -11 -22 -11 -40 0 -18 -9 -45 -20 -59 -11 -14 -24 -48 -30
-75 -10 -55 -100 -241 -134 -276 -36 -39 -57 -67 -69 -94 -6 -15 -23 -38 -38
-52 -14 -14 -30 -35 -33 -47 -4 -13 -12 -23 -17 -23 -6 0 -9 -10 -7 -23 2 -17
-4 -24 -27 -31 -20 -6 -43 -26 -63 -55 -18 -25 -48 -66 -67 -91 -19 -25 -46
-61 -59 -81 -13 -19 -69 -71 -123 -115 l-99 -79 2 -118 c1 -65 5 -121 8 -124
3 -3 32 20 65 52 34 32 77 64 97 71 19 7 48 26 64 44 15 17 32 31 37 31 23 -2
73 22 73 36 0 11 6 14 25 9 21 -5 25 -3 25 14 0 12 9 24 23 29 18 7 23 5 28
-13 6 -20 7 -20 17 5 6 15 8 37 5 48 -5 20 -3 21 21 15 18 -4 26 -2 26 6 0 7
8 19 18 26 10 8 12 13 5 14 -7 0 -13 4 -13 10 0 5 7 7 16 3 12 -4 15 0 14 18
-6 64 -1 79 25 79 14 0 25 5 25 11 0 6 7 3 16 -6 11 -10 15 -28 12 -54 -2 -22
0 -37 4 -35 5 3 8 43 8 89 l0 83 33 -2 c32 -3 33 -1 32 28 -2 17 2 36 7 43 5
7 7 17 3 23 -3 5 1 10 9 10 9 0 16 -6 16 -12 0 -7 10 -14 23 -14 18 -1 22 4
24 30 6 102 26 162 45 134 6 -11 10 -10 17 1 7 11 9 11 14 0 4 -8 4 -2 1 13
-4 19 0 32 15 45 14 11 21 29 21 51 0 18 7 40 15 48 8 9 15 11 15 5 0 -6 4
-11 8 -11 4 0 7 16 7 35 -1 20 2 38 7 41 4 3 8 23 8 45 0 21 5 40 10 40 20 3
25 4 37 12 6 4 13 4 16 0 2 -5 2 -1 -1 7 -12 37 -14 60 -5 60 13 0 12 114 -1
123 -8 5 -7 10 3 16 7 5 11 14 7 20 -5 7 3 9 24 5 19 -4 30 -2 30 5 0 6 -7 11
-15 11 -8 0 -15 7 -15 15 0 8 -4 15 -10 15 -17 0 -11 48 10 90 15 28 20 59 20
112 0 59 5 81 25 117 24 42 25 49 25 238 0 107 -4 192 -9 189 -4 -3 -7 63 -5
147 2 172 -1 198 -23 190 -11 -4 -14 -2 -11 8 3 8 11 13 17 11 6 -1 11 8 12
20 0 13 2 42 4 66 3 43 3 43 -29 41 -43 -4 -59 8 -52 37 4 14 2 32 -3 42 -5 9
-7 30 -4 45 10 51 22 27 26 -50 l3 -78 2 82 c2 62 -1 84 -12 90 -8 4 -14 15
-14 23 2 37 -3 50 -21 50 -11 0 -21 -6 -24 -12 -2 -7 -7 1 -11 17 -3 17 -10
48 -15 70 -5 22 -6 57 -4 78 4 25 1 37 -7 37 -8 0 -10 -11 -5 -32 5 -27 4 -30
-5 -15 -6 9 -15 15 -21 12 -20 -13 -7 27 16 49 32 30 32 35 -6 34 -48 -2 -61
23 -53 99 l7 63 -40 0 c-37 0 -41 3 -47 31 -3 17 -3 35 0 40 3 5 -9 9 -25 9
-28 0 -31 3 -31 33 0 62 -38 112 -54 71 -5 -13 -9 -14 -21 -4 -19 16 -19 30
-1 30 8 0 16 7 20 15 3 10 -1 15 -14 15 -15 0 -19 8 -22 43 -3 42 -3 42 -45
45 -41 3 -43 5 -43 35 0 30 -2 33 -32 32 -32 0 -33 2 -38 45 l-5 45 -48 3
c-34 2 -51 9 -60 23 -6 10 -17 19 -23 19 -16 0 -24 24 -24 70 0 21 -4 41 -9
44 -4 3 -31 6 -59 7 -32 1 -53 7 -56 16 -3 7 -12 13 -21 13 -8 0 -15 5 -15 10
0 6 6 10 14 10 8 0 18 -4 21 -10 3 -5 13 -10 22 -10 12 0 13 3 4 14 -9 11 -9
15 1 19 7 3 -3 4 -23 2 -30 -3 -38 0 -42 16 -4 15 -14 19 -50 19 -42 0 -44 1
-39 25 5 27 -15 34 -36 13 -9 -9 -12 -9 -12 0 0 7 -7 12 -15 12 -11 0 -15 11
-15 38 l0 38 -72 0 -73 -1 -5 45 -5 45 -86 0 c-77 0 -85 2 -81 18 2 9 -1 23
-7 31 -9 11 -9 15 0 18 7 2 -18 3 -55 2 -56 -2 -70 0 -84 17 -10 12 -29 19
-52 19 -35 0 -72 32 -49 44 5 2 4 3 -3 2 -7 -2 -12 -9 -10 -16 3 -16 -40 -2
-51 16 -11 19 -157 20 -157 2 0 -8 -3 -9 -8 -3 -10 14 -50 14 -89 0z m712
-197 c7 -8 4 -9 -10 -3 -11 5 -33 8 -50 7 -23 -1 -26 1 -15 8 17 11 60 4 75
-12z m1186 -1362 c5 3 9 -2 9 -11 0 -23 -24 -13 -27 11 -2 10 0 13 3 6 3 -6
10 -10 15 -6z m79 -241 c0 -13 5 -25 10 -27 6 -2 2 -8 -7 -14 -16 -10 -18 -6
-19 32 0 24 3 41 8 38 4 -3 8 -16 8 -29z m-170 -1268 c0 -5 -4 -5 -10 -2 -5 3
-10 14 -10 23 0 15 2 15 10 2 5 -8 10 -19 10 -23z m-20 -53 c0 -8 -4 -14 -10
-14 -5 0 -10 9 -10 21 0 11 5 17 10 14 6 -3 10 -13 10 -21z"/>
<path d="M2600 5308 c0 -80 -3 -154 -7 -164 -4 -12 -3 -15 6 -10 9 6 11 -466
11 -2089 -1 -1154 0 -2099 2 -2100 5 -5 31 -7 58 -6 l25 1 0 2254 0 2254 -48
4 -47 3 0 -147z"/>
<path d="M2480 5404 c-19 -7 -46 -13 -60 -14 -14 0 -36 -7 -50 -15 -35 -20
-80 -19 -80 1 0 11 -5 14 -17 9 -10 -4 -45 -14 -78 -22 -33 -9 -75 -24 -93
-34 -18 -11 -49 -19 -70 -19 -20 0 -55 -7 -77 -14 -36 -12 -40 -18 -43 -50 -3
-32 -6 -35 -26 -30 -32 8 -126 -33 -119 -52 4 -10 -3 -14 -24 -14 -29 0 -79
-30 -134 -81 -15 -15 -34 -29 -41 -33 -36 -17 -133 -105 -136 -123 -3 -18 -9
-21 -38 -19 -19 2 -34 -1 -34 -5 0 -5 6 -9 14 -9 7 0 16 -9 19 -20 6 -23 -3
-26 -22 -7 -11 10 -13 9 -8 -5 5 -14 -2 -17 -41 -20 -42 -3 -47 -6 -50 -28
l-3 -25 20 23 c26 30 51 29 51 -2 0 -27 -83 -106 -126 -120 -19 -6 -46 -44
-71 -98 -6 -16 -22 -38 -35 -51 -29 -30 -68 -84 -68 -94 0 -4 -13 -21 -30 -36
-16 -16 -30 -37 -30 -47 0 -10 -5 -22 -11 -26 -6 -4 -29 -46 -50 -93 -22 -47
-44 -93 -49 -103 -5 -9 -16 -44 -25 -79 -10 -38 -35 -90 -62 -131 -78 -116
-112 -228 -121 -401 -4 -70 -12 -121 -18 -125 -8 -5 -12 -51 -11 -137 0 -71
-1 -220 -2 -329 -2 -114 1 -201 7 -205 5 -3 12 -53 15 -111 8 -134 56 -334 92
-380 7 -8 15 -24 19 -35 6 -16 9 -17 16 -5 7 10 10 -1 10 -38 0 -29 5 -60 10
-70 6 -9 19 -38 30 -64 10 -27 25 -48 32 -48 27 -1 57 -39 86 -108 30 -72 109
-182 156 -217 14 -11 26 -28 26 -38 0 -11 8 -31 19 -45 10 -15 20 -33 22 -39
10 -33 175 -183 249 -227 44 -26 85 -55 92 -65 10 -14 251 -181 260 -181 2 0
3 56 3 125 0 69 -3 125 -7 125 -5 0 -34 19 -65 43 -96 71 -116 85 -178 128
-95 66 -249 238 -294 330 -7 14 -28 42 -47 63 -19 20 -34 40 -34 44 0 4 -13
23 -29 43 -57 68 -112 225 -113 322 0 39 -3 66 -5 60 -9 -24 -33 14 -33 51 0
26 -4 36 -15 36 -19 0 -55 58 -55 89 0 26 -27 176 -41 231 -5 19 -14 114 -20
210 -22 366 -22 373 -5 414 9 21 16 49 16 63 0 13 4 32 10 42 5 10 14 49 21
87 6 38 15 87 19 109 3 22 19 65 33 96 15 31 27 61 27 67 0 7 7 12 15 12 9 0
21 11 27 25 6 14 16 25 22 25 6 0 11 11 11 24 0 16 -5 22 -15 19 -11 -3 -10
-1 3 10 9 8 17 24 17 36 0 33 24 83 58 122 16 19 32 46 34 59 1 14 7 24 11 22
14 -5 37 26 43 57 4 17 11 28 16 25 6 -4 8 4 7 17 -4 26 37 89 57 89 7 0 15
18 19 39 4 26 15 45 31 56 13 8 24 22 24 30 0 7 14 23 30 35 17 12 30 27 30
33 0 20 142 152 183 171 21 10 54 33 74 52 19 19 50 41 67 48 17 8 51 32 76
54 25 22 62 45 82 52 21 6 38 15 38 20 0 6 9 10 19 10 11 0 41 17 68 38 69 55
132 89 178 98 22 3 45 10 50 14 6 4 33 10 61 13 48 5 97 22 134 46 8 6 36 13
63 16 l47 6 0 48 c0 27 3 76 6 110 8 69 3 72 -66 45z m-252 -179 c-10 -10 -49
-14 -43 -4 4 5 16 9 27 9 12 0 19 -2 16 -5z m-99 -24 c8 -5 9 -11 3 -15 -5 -3
-15 1 -22 9 -14 16 -3 20 19 6z"/>
<path d="M2785 3185 c0 -1865 2 -2102 15 -2096 8 3 33 16 56 28 78 41 279 56
319 23 7 -5 36 -18 66 -29 l54 -18 0 2097 c0 1154 -3 2094 -6 2089 -11 -19
-124 -80 -166 -91 -93 -23 -220 7 -303 72 l-35 28 0 -2103z"/>
<path d="M2455 5140 c-4 -6 8 -10 29 -10 20 0 36 5 36 10 0 6 -13 10 -29 10
-17 0 -33 -4 -36 -10z"/>
<path d="M2059 4984 c-12 -14 -11 -16 5 -13 11 2 21 10 24 17 5 17 -13 15 -29
-4z"/>
<path d="M4670 4896 c0 -1 11 -12 24 -23 l24 -21 -2 22 c-1 14 -8 22 -23 22
-13 1 -23 1 -23 0z"/>
<path d="M1115 4659 c-11 -17 1 -21 15 -4 8 9 8 15 2 15 -6 0 -14 -5 -17 -11z"/>
<path d="M4170 4643 c-4 -87 2 -3674 6 -3690 5 -19 13 -23 45 -23 36 0 39 2
46 38 4 20 8 846 8 1834 0 1784 0 1798 -20 1817 -21 20 -85 38 -85 24z"/>
<path d="M1045 4570 c-8 -13 5 -13 25 0 13 8 13 10 -2 10 -9 0 -20 -4 -23 -10z"/>
<path d="M5025 4570 c3 -5 8 -10 11 -10 2 0 4 5 4 10 0 6 -5 10 -11 10 -5 0
-7 -4 -4 -10z"/>
<path d="M955 4499 c-4 -6 -5 -12 -2 -15 2 -3 7 2 10 11 7 17 1 20 -8 4z"/>
<path d="M4050 4485 c-48 -58 -176 -88 -290 -67 -70 13 -172 49 -181 63 -13
22 -18 -27 -14 -146 3 -66 5 -819 5 -1672 0 -854 1 -1553 3 -1553 2 0 30 10
63 21 68 25 237 31 314 11 25 -6 57 -14 73 -18 15 -3 30 -10 33 -15 3 -5 12
-9 20 -9 12 0 14 220 14 1648 0 906 -3 1671 -6 1700 -7 54 -13 62 -34 37z"/>
<path d="M4721 4394 c0 -11 3 -14 6 -6 3 7 2 16 -1 19 -3 4 -6 -2 -5 -13z"/>
<path d="M4890 4110 c0 -5 12 -10 28 -10 21 0 24 2 12 10 -20 13 -40 13 -40 0z"/>
<path d="M1827 3773 c-5 -24 -12 -2010 -10 -2576 1 -233 4 -252 43 -266 18 -6
30 -6 30 0 0 5 6 9 13 9 11 0 14 26 13 118 0 64 1 604 2 1198 1 595 -2 1092
-6 1104 -5 13 -7 114 -4 225 l5 202 -33 6 c-47 10 -47 10 -53 -20z"/>
<path d="M2500 3648 c0 -20 -65 -57 -121 -69 -29 -6 -93 -9 -143 -7 -83 4 -97
7 -157 41 -36 20 -69 37 -72 37 -4 0 -4 -202 0 -450 6 -435 6 -450 -12 -450
-15 0 -16 -3 -7 -12 16 -16 16 -148 0 -148 -6 0 -4 -6 5 -13 17 -11 18 -60 15
-745 -3 -729 -3 -733 17 -729 11 3 40 13 64 22 102 37 295 26 398 -23 37 -18
43 -15 42 19 0 13 -3 273 -5 577 -4 418 -2 552 6 552 8 0 10 12 6 38 -18 112
-19 135 -5 127 11 -6 12 -5 2 6 -10 10 -13 149 -13 626 0 402 -3 613 -10 613
-5 0 -10 -6 -10 -12z"/>
<path d="M5211 3254 c0 -11 3 -14 6 -6 3 7 2 16 -1 19 -3 4 -6 -2 -5 -13z"/>
<path d="M5442 2690 c0 -19 2 -27 5 -17 2 9 2 25 0 35 -3 9 -5 1 -5 -18z"/>
<path d="M5417 2523 c-11 -10 -8 -73 3 -73 6 0 10 8 10 18 0 9 3 27 6 40 6 21
-5 30 -19 15z"/>
<path d="M2552 2310 c0 -19 2 -27 5 -17 2 9 2 25 0 35 -3 9 -5 1 -5 -18z"/>
<path d="M1052 2235 c0 -16 2 -22 5 -12 2 9 2 23 0 30 -3 6 -5 -1 -5 -18z"/>
<path d="M1270 1935 c7 -9 15 -13 17 -11 7 7 -7 26 -19 26 -6 0 -6 -6 2 -15z"/>
<path d="M4725 1720 c-3 -5 -1 -10 4 -10 6 0 11 5 11 10 0 6 -2 10 -4 10 -3 0
-8 -4 -11 -10z"/>
<path d="M1405 1691 c-7 -12 12 -24 25 -16 11 7 4 25 -10 25 -5 0 -11 -4 -15
-9z"/>
<path d="M4738 1303 c7 -3 16 -2 19 1 4 3 -2 6 -13 5 -11 0 -14 -3 -6 -6z"/>
<path d="M2550 1180 c0 -22 3 -40 8 -40 4 0 6 18 4 40 -2 22 -6 40 -8 40 -2 0
-4 -18 -4 -40z"/>
</g>
</svg>
